<?xml version="1.0" encoding="utf-8"?>
<!-- Generator: Adobe Illustrator 19.0.0, SVG Export Plug-In . SVG Version: 6.00 Build 0)  -->
<svg version="1.1" id="Layer_1" xmlns="http://www.w3.org/2000/svg" xmlns:xlink="http://www.w3.org/1999/xlink" x="0px" y="0px"
	 viewBox="0 0 150 22" style="enable-background:new 0 0 150 22;" xml:space="preserve" fill="#fff">
<g id="XMLID_1_">
	<path id="XMLID_13_" d="M4.2,21.7c3.3,0.2,8-1.2,6.9-8.3c1-0.9,2.4-0.6,3.3,0.2l1.8-3.9c-1.8-1.5-3.8-1-5.7,0.6
		c-0.6-1.5-0.7-3.1,0.3-4.1c4.8,0.6,9-0.6,9-6.2c-3.3,2.3-5.8,1.5-9.2,0.7C5.4-0.4,1,0.1,0,7.2c2.4-1.6,5.2-1.8,6.5-1.4
		c-1.8,2.7-2.9,4.4-1.4,9.9C5.5,17.4,6.1,19.4,4.2,21.7"/>
	<path id="XMLID_12_" d="M19.4,6.2l6-2.1C26.9,5.3,27,6.4,27,9.4c0,3.1-0.5,5.2,1.7,6.4l-5.6,2c-2.4-1.3-2.2-2.6-2.1-6.1
		C21,8.2,21.2,7.3,19.4,6.2"/>
	<path id="XMLID_11_" d="M37.7,9.6c-0.1,2.8-0.7,5.3,1.7,6.2l-5.3,2c-2.4-1.3-2.2-2.6-2.1-6.1c0-3.4,0.3-4.3-1.6-5.5l5.7-2.1
		c0.9,0.7,1.3,1.3,1.5,2.2l4.7-2l3,5.1l-4.5,2.6L39,9.2L37.7,9.6"/>
	<path id="XMLID_25_" d="M52.8,11.4l3.1-1.5L54,7.6C52.5,8,52,9.8,52.8,11.4 M57.9,4.2l4.5,5.6l-7.8,3.6c1.4,1.9,5.9,0.9,7.4-0.1
		l-2.4,4c-8.1,2.7-13.8-2.1-12.5-7.4C48.3,5.1,55.3,4.2,57.9,4.2z"/>
	<path id="XMLID_8_" d="M71.9,14.1L66.7,11c-2.8-1.7-1.2-2.7-0.2-3.3l6.1-3.6l6.8,3.8l-1.7,1.5L74,7.3c-0.8-0.6-1.9,0.4-0.6,1.3
		l4.9,3c2.3,1.2,1.6,2.7,0.2,3.5l-6.3,3.5l-7-4l1.8-1.6l4.1,2.4C72.1,16.2,73.1,15.1,71.9,14.1"/>
	<path id="XMLID_7_" d="M89.4,1.4L80.6,8h3v6.4c0.1,1.7,0.4,2.7,1.9,3.5l5.9-2.2c-1.4-0.7-2-1.2-2-2.8V8h3.4V4.7h-3.4V1.4"/>
	<path id="XMLID_20_" d="M101.7,7.2c-1.8,2.5,0,6.8,2.7,7.1C105.7,12.6,105.1,8.5,101.7,7.2 M111.1,10.4c0.2,4.1-1.7,5.6-7.4,7.7
		c-5.1-1-8.3-2.9-8.8-6.6c-0.4-3,0.6-5.3,8.3-7.5C106.2,5,110.9,6.8,111.1,10.4z"/>
	<path id="XMLID_4_" d="M130.2,9c0,0,0,3.2,0,4.6c0,1.4,0.5,2,1.7,2.4l-5.5,2c-1.5-0.9-1.9-1.7-1.9-3.2s0-2.1,0-3.9
		c0-1.7-0.7-2.3-1.4-2.6l-2,0.6c0,0,0,3,0,4.8c0,1.4,0.6,1.8,1.4,2.3l-5.5,1.9c-2-1.2-1.7-2.6-1.7-6.1c0-3.4,0.2-4.3-1.7-5.5
		l5.7-2.1c0.9,0.7,1.1,1.3,1.3,2.2l4.6-1.7C128.3,3.6,130.2,6.4,130.2,9"/>
	<path id="XMLID_16_" d="M140.4,11.5l3.1-1.5l-1.9-2.3C140.1,8.1,139.6,9.9,140.4,11.5 M145.5,4.3l4.5,5.6l-7.8,3.6
		c1.4,1.9,5.9,0.9,7.4-0.1l-2.4,4c-8.1,2.7-13.8-2.1-12.5-7.4C135.9,5.2,142.9,4.3,145.5,4.3z"/>
</g>
</svg>
