<?xml version="1.0" encoding="utf-8"?>
<!-- Generator: Adobe Illustrator 16.0.5, SVG Export Plug-In . SVG Version: 6.00 Build 0)  -->
<!DOCTYPE svg PUBLIC "-//W3C//DTD SVG 1.1//EN" "http://www.w3.org/Graphics/SVG/1.1/DTD/svg11.dtd">
<svg version="1.1" id="Layer_1" xmlns="http://www.w3.org/2000/svg" xmlns:xlink="http://www.w3.org/1999/xlink" x="0px" y="0px"
	 width="202.662px" height="25px" viewBox="33.316 4.11 202.662 25" enable-background="new 33.316 4.11 202.662 25"
	 xml:space="preserve">
<g>
	<path fill="#FFFFFF" d="M120.734,25.191c-0.407,0.037-0.914,0.097-1.706,0.097c-3.78,0-3.36-1.14-1.767-7.311
		c1.66-6.414,2.625-7.586,4.987-7.586c2.27,0,2.289,1.532,1.712,3.467h5.766c0.935-3.615,0.31-6.818-6.432-6.818
		c-7.508,0-9.547,1.583-11.966,10.937c-2.253,8.711-1.512,11.021,6.604,11.021c3.848,0,5.459-0.282,7.803-0.707l2.714-10.183h-5.786
		L120.734,25.191z"/>
	<path fill="#FFFFFF" d="M138.591,12.357c0.23-0.893,0.864-1.652,2.104-1.652h6.18l0.869-3.364h-8.977
		c-3.722,0-4.841,0.666-6.285,6.267l-2.667,10.245c-0.817,3.436,0.202,4.932,3.012,4.932h7.744c1.525,0,2.508-0.808,2.981-2.053
		l0.635-1.641h-7.775c-0.754,0-1.015-0.229-0.872-0.833l1.308-5.126h7.713l0.872-3.361h-7.717L138.591,12.357z"/>
	<path fill="#FFFFFF" d="M228.931,10.705h6.175l0.872-3.364h-8.977c-3.725,0-4.845,0.666-6.291,6.267l-2.662,10.242
		c-0.819,3.438,0.202,4.935,3.009,4.935h7.747c1.523,0,2.505-0.809,2.979-2.053l0.636-1.641h-7.776
		c-0.754,0-1.015-0.229-0.873-0.836l1.309-5.123h7.713l0.87-3.361h-7.714l0.877-3.416C227.055,11.465,227.691,10.705,228.931,10.705
		z"/>
	<path fill="#FFFFFF" d="M102.55,7.341h-7.723l-5.376,20.801c-0.093,0.356,0.114,0.643,0.464,0.643h6.875
		c8.639,0,10.096-1.65,12.465-10.812C111.314,10.011,110.044,7.341,102.55,7.341z M103.338,17.972
		c-1.614,6.25-2.553,7.151-5.737,7.151h-1.584l3.729-14.413c0.479-0.002,0.659-0.021,1.848-0.021
		C104.941,10.688,104.936,11.796,103.338,17.972z"/>
	<path fill="#FFFFFF" d="M210.566,7.299c-4.449,0-6.515,0.096-7.731,0.042l-5.381,20.801c-0.093,0.356,0.114,0.643,0.462,0.643
		h5.159l4.676-18.075c0.476-0.002,1.198-0.041,1.932-0.041c2.507,0,2.838,0.891,2.178,3.447l-3.631,14.027
		c-0.092,0.355,0.116,0.645,0.464,0.645h5.159l3.794-14.672C218.962,9.033,216.729,7.299,210.566,7.299z"/>
	<path fill="#FFFFFF" d="M181.823,8.768l0.541-1.427h-16.484l-0.892,3.484h5.73c0.059,0,0.059,0.073,0.008,0.112
		c-0.916,0.688-1.476,1.67-1.742,2.698l-3.759,14.507c-0.091,0.354,0.119,0.643,0.465,0.643h5.539l4.653-17.96h2.839
		C180.315,10.825,181.283,10.158,181.823,8.768z"/>
	<path fill="#FFFFFF" d="M90.469,7.341h-5.453l-5.381,20.801c-0.091,0.354,0.117,0.643,0.465,0.643h5.454l5.379-20.801
		C91.026,7.629,90.816,7.341,90.469,7.341z"/>
	<path fill="#FFFFFF" d="M191.228,7.045c-6.492,0-9.31,1.155-11.861,11.019c-2.21,8.546-0.439,11.019,6.164,11.019
		c6.718,0,9.372-1.382,11.862-11.019C199.198,11.089,198.83,7.045,191.228,7.045z M191.516,17.893
		c-1.582,6.112-3.143,7.588-5.055,7.588c-2.473,0-2.843-0.904-1.115-7.588c1.438-5.563,2.811-7.501,5.02-7.501
		C192.838,10.393,193.113,11.723,191.516,17.893z"/>
	<path fill="#FFFFFF" d="M36.982,18.377c4.669-4.856,11.111-10.28,16.454-13.935c0.131-0.091,0.077-0.315-0.095-0.315H43.068
		c-1.353,0-2.693,1.105-3.017,2.316L36.69,18.223C36.641,18.402,36.859,18.505,36.982,18.377z"/>
	<path fill="#FFFFFF" d="M54.463,15.484c2.589-0.442,5.201-1.485,6.132-5.261c1.007-4.088-2.118-6.327-5.712-6.097l-5.5,19.253
		c-0.297,1.042-1.411,1.917-2.469,1.917h-2.11l3.326-11.629c0.049-0.175-0.14-0.304-0.283-0.182
		c-4.892,4.207-10.792,10.353-14.485,15.001c-0.094,0.119-0.046,0.298,0.116,0.298h14.389c6.067,0,9.389-1.881,10.592-6.372
		c0.981-3.658-0.936-6.153-3.997-6.798C54.409,15.605,54.36,15.503,54.463,15.484z"/>
	<path fill="#FFFFFF" d="M80.152,13.607c0.902-3.488-1.297-6.266-6.852-6.266h-8.255l-5.381,20.801
		c-0.093,0.354,0.115,0.643,0.464,0.643h5.159l4.674-18.075c0.499-0.002,0.977-0.021,2.164-0.021c1.989,0,2.724,1.227,2.295,2.883
		c-0.565,2.183-2.256,3.408-4.267,3.408h-0.758l2.146,10.377c0.256,1.013,0.764,1.431,1.927,1.431h4.608l-2.003-8.6
		c-0.193-0.641-0.399-1.107-0.705-1.487c-0.04-0.049-0.049-0.114,0.023-0.138C77.856,17.803,79.468,16.245,80.152,13.607z"/>
	<path fill="#FFFFFF" d="M157.182,6.863c-5.09,0-7.839,1.999-8.824,5.825c-0.273,1.051-0.172,2.762,0.455,3.835
		c1.396,2.393,5.1,2.692,7.15,4.115c0.889,0.619,0.918,1.455,0.679,2.373c-0.459,1.786-1.358,2.638-3.144,2.638
		c-1.718,0-2.748-0.999-1.765-4.129h-5.451c-2.183,5.224,0.664,7.591,6.465,7.591c5.296,0,8.236-1.26,9.496-6.129
		c0.43-1.665,0.151-3.462-0.869-4.571c-1.981-2.152-5.788-2.556-7.127-3.803c-0.682-0.634-0.674-1.522-0.478-2.288
		c0.362-1.401,1.305-2.168,2.833-2.168c2.396,0,2.454,1.475,1.865,3.22h5.135C164.811,9.724,163.23,6.863,157.182,6.863z"/>
</g>
</svg>
