<?xml version="1.0" encoding="utf-8"?>
<!-- Generator: Adobe Illustrator 19.2.1, SVG Export Plug-In . SVG Version: 6.00 Build 0)  -->
<svg version="1.1" id="Layer_1" xmlns="http://www.w3.org/2000/svg" xmlns:xlink="http://www.w3.org/1999/xlink" x="0px" y="0px"
	 viewBox="0 0 179 180" style="enable-background:new 0 0 179 180;" xml:space="preserve">
<style type="text/css">
	.st0{fill:#444445;}
	.st1{fill:#53B448;}
	.st2{fill:#636363;}
	.st3{fill-rule:evenodd;clip-rule:evenodd;fill:#1EA361;}
	.st4{fill-rule:evenodd;clip-rule:evenodd;fill:#FEDB43;}
	.st5{fill-rule:evenodd;clip-rule:evenodd;fill:#5384C4;}
	.st6{fill-rule:evenodd;clip-rule:evenodd;fill:#FFFFFF;}
	.st7{fill-rule:evenodd;clip-rule:evenodd;fill:#C2C2C1;}
	.st8{fill:#EFEFEF;}
	.st9{fill:#DC4B3E;}
	.st10{fill:#802C27;}
</style>
<a xlink:href="http://www.seeklogo.net" >
	<g>
		<path class="st0" d="M32.3,483.1c0.6,0,1.3,0.3,2,0.8c0.9,0.7,1.5,1,1.8,1c0.5,0,0.7-0.2,0.7-0.7c0-0.3-0.1-0.5-0.4-0.7
			c-0.1-0.1-1-0.4-2.5-0.9c-2.4-0.9-3.7-2.5-3.7-4.8c0-1.8,0.6-3.1,1.9-4.2c1.1-0.9,2.5-1.3,4.2-1.3c1.4,0,2.7,0.3,3.8,1
			c1.1,0.7,1.6,1.6,1.6,2.7c0,0.7-0.2,1.2-0.6,1.6c-0.4,0.4-0.9,0.7-1.6,0.7c-0.7,0-1.4-0.3-2.2-1c-0.5-0.4-0.9-0.6-1.2-0.6
			c-0.4,0-0.7,0.2-0.7,0.7c0,0.4,0.6,0.8,1.7,1.1c1.5,0.5,2.7,1.1,3.6,1.8c1.1,0.9,1.7,2.2,1.7,3.9c0,1.8-0.6,3.2-1.9,4.3
			c-1.2,1-2.7,1.4-4.5,1.4c-1.9,0-3.4-0.5-4.6-1.5c-1-0.8-1.5-1.7-1.5-2.8c0-0.7,0.2-1.3,0.7-1.8C31,483.4,31.6,483.1,32.3,483.1z"
			/>
		<path class="st0" d="M49.7,484.3h2.5c1,0,1.8,0.2,2.3,0.6c0.6,0.5,0.9,1.2,0.9,2c0,0.8-0.3,1.5-0.9,2c-0.5,0.4-1.2,0.6-2.3,0.6
			h-4.3c-1,0-1.7-0.1-2.1-0.2c-0.7-0.3-1.2-0.8-1.5-1.5c-0.1-0.4-0.2-1.2-0.2-2.2v-9.1c0-0.8,0-1.3,0.1-1.5c0.1-0.5,0.3-1,0.6-1.3
			c0.4-0.4,0.9-0.7,1.5-0.8c0.3,0,0.9-0.1,1.7-0.1h3.3c0.9,0,1.4,0,1.6,0c0.6,0.1,1.1,0.2,1.4,0.5c0.7,0.5,1,1.2,1,2
			c0,0.9-0.3,1.6-0.9,2c-0.5,0.4-1.2,0.6-2.1,0.6h-2.7v1.1h2.2c0.6,0,1.2,0.2,1.6,0.5c0.4,0.4,0.7,0.8,0.7,1.5c0,1.3-0.8,2-2.4,2h-2
			V484.3z"/>
		<path class="st0" d="M62.5,484.3H65c1,0,1.8,0.2,2.3,0.6c0.6,0.5,0.9,1.2,0.9,2c0,0.8-0.3,1.5-0.9,2c-0.5,0.4-1.2,0.6-2.3,0.6
			h-4.3c-1,0-1.7-0.1-2.1-0.2c-0.7-0.3-1.2-0.8-1.5-1.5c-0.1-0.4-0.2-1.2-0.2-2.2v-9.1c0-0.8,0-1.3,0.1-1.5c0.1-0.5,0.3-1,0.6-1.3
			c0.4-0.4,0.9-0.7,1.5-0.8c0.3,0,0.9-0.1,1.7-0.1h3.3c0.9,0,1.4,0,1.6,0c0.6,0.1,1.1,0.2,1.4,0.5c0.7,0.5,1,1.2,1,2
			c0,0.9-0.3,1.6-0.9,2c-0.5,0.4-1.2,0.6-2.1,0.6h-2.7v1.1h2.2c0.6,0,1.2,0.2,1.6,0.5c0.4,0.4,0.7,0.8,0.7,1.5c0,1.3-0.8,2-2.4,2h-2
			V484.3z"/>
		<path class="st0" d="M75.3,478.4l3.1-4.5c0.6-0.8,1.3-1.3,2.3-1.3c0.8,0,1.4,0.3,2,0.8c0.6,0.5,0.8,1.2,0.8,1.9
			c0,0.6-0.1,1-0.4,1.5l-2.8,4.1l3.4,4.3c0.3,0.4,0.5,0.9,0.5,1.5c0,0.8-0.3,1.4-0.8,2c-0.5,0.5-1.2,0.8-2,0.8
			c-0.8,0-1.5-0.3-1.9-0.8l-4.2-5.2v2.9c0,0.8-0.1,1.5-0.4,1.9c-0.5,0.8-1.3,1.2-2.3,1.2c-0.9,0-1.6-0.3-2.1-0.9
			c-0.5-0.6-0.7-1.3-0.7-2.2v-10.7c0-0.9,0.2-1.6,0.7-2.2c0.5-0.6,1.2-0.9,2.1-0.9c0.8,0,1.5,0.3,2.1,0.9c0.3,0.3,0.5,0.7,0.6,1
			c0,0.2,0.1,0.6,0.1,1.2V478.4z"/>
		<path class="st1" d="M91,484.3h2.7c0.8,0,1.5,0.2,2,0.5c0.7,0.5,1,1.2,1,2.1c0,0.8-0.3,1.4-0.9,2c-0.5,0.4-1.1,0.6-2,0.6h-5.2
			c-1,0-1.8-0.3-2.3-0.9c-0.4-0.4-0.6-1-0.7-1.6c0-0.2,0-0.8,0-1.8v-9.4c0-0.9,0.2-1.6,0.7-2.2c0.5-0.6,1.2-0.9,2-0.9
			c0.9,0,1.6,0.3,2.1,1c0.4,0.5,0.6,1.5,0.6,2.7V484.3z"/>
		<path class="st1" d="M105.4,472.3c1.7,0,3.2,0.4,4.7,1.3c1.4,0.9,2.5,2.1,3.2,3.6c0.6,1.2,0.9,2.5,0.9,3.9c0,1.5-0.4,3-1.1,4.3
			c-0.8,1.3-1.8,2.4-3.1,3.2c-1.4,0.8-2.9,1.3-4.6,1.3c-1.6,0-3.2-0.4-4.6-1.3c-1.4-0.9-2.5-2.1-3.2-3.5c-0.6-1.2-0.9-2.6-0.9-4.1
			c0-1.2,0.3-2.4,0.8-3.5c0.7-1.6,1.8-2.8,3.2-3.7C102.1,472.8,103.6,472.3,105.4,472.3z"/>
		<path class="st1" d="M125.9,483.7h-0.8c-1,0-1.7-0.3-2.1-1c-0.2-0.3-0.3-0.7-0.3-1c0-0.7,0.3-1.2,0.8-1.6c0.4-0.3,1-0.4,1.9-0.4
			c1.4,0,2.2,0,2.4,0c1.1,0.1,1.8,0.3,2.2,0.6c0.6,0.5,0.9,1.4,0.9,2.6c0,1,0,1.8-0.1,2.5c-0.1,1-0.7,2-1.9,2.8
			c-1.5,1-3.2,1.6-4.9,1.6c-2.1,0-4-0.7-5.6-2c-1-0.8-1.8-1.8-2.3-3c-0.6-1.2-0.8-2.4-0.8-3.7c0-1.7,0.4-3.2,1.3-4.6
			c0.9-1.4,2.1-2.5,3.6-3.2c1.3-0.6,2.6-0.9,3.9-0.9c1.7,0,3.3,0.5,4.7,1.4c1.1,0.7,1.7,1.6,1.7,2.6c0,0.8-0.3,1.4-0.8,2
			c-0.5,0.5-1.2,0.8-2,0.8c-0.3,0-1-0.2-2-0.7c-0.6-0.3-1.2-0.5-1.7-0.5c-0.9,0-1.6,0.3-2.2,1c-0.6,0.6-0.9,1.4-0.9,2.3
			c0,0.9,0.3,1.7,0.9,2.3c0.6,0.6,1.4,0.9,2.3,0.9C124.6,484.3,125.2,484.1,125.9,483.7z"/>
		<path class="st1" d="M140.7,472.3c1.7,0,3.2,0.4,4.7,1.3c1.4,0.9,2.5,2.1,3.2,3.6c0.6,1.2,0.9,2.5,0.9,3.9c0,1.5-0.4,3-1.1,4.3
			c-0.8,1.3-1.8,2.4-3.1,3.2c-1.4,0.8-2.9,1.3-4.6,1.3c-1.6,0-3.2-0.4-4.6-1.3c-1.4-0.9-2.5-2.1-3.2-3.5c-0.6-1.2-0.9-2.6-0.9-4.1
			c0-1.2,0.3-2.4,0.8-3.5c0.7-1.6,1.8-2.8,3.2-3.7C137.3,472.8,138.9,472.3,140.7,472.3z"/>
	</g>
</a>
<a xlink:href="http://www.seeklogo.net" >
	<text transform="matrix(1 0 0 1 27.1095 501.89)" class="st2" style="font-family:'MyriadPro-Regular'; font-size:12px;">http://www.seeklogo.net</text>
</a>
<g>
	<path class="st3" d="M4.8,159.8V36.9c0-7.1,5.8-12.9,12.9-12.9h122.9L4.8,159.8z"/>
	<path class="st4" d="M4.8,162.3v-2.6L140.6,23.9h2.6c7.1,0,12.9,5.8,12.9,12.9v2.6L20.3,175.3h-2.6C10.6,175.3,4.8,169.5,4.8,162.3
		z"/>
	<polygon class="st5" points="20.3,175.3 80.5,115.1 140.6,175.3 	"/>
	<path class="st6" d="M140.6,175.3l-61.1-61.1l15.5-15.5l61.1,61.1v2.6c0,7.1-5.8,12.9-12.9,12.9H140.6z"/>
	<polygon class="st7" points="156.1,159.8 96,99.6 156.1,39.4 	"/>
	<path class="st8" d="M31.8,40.7c7.7-3.5,17.3-2.1,23.6,3.7c-2,2-4,3.9-6,5.9c-6.3-6.2-18-3.3-20.9,4.9C24.6,63.2,31,73.9,40,74
		c5.9,0.7,11.8-3.3,13-9.1c-4.1,0-8.2,0-12.3,0c-0.1-2.5-0.1-5.1-0.1-7.6c6.9,0.2,13.9-0.4,20.7,0.3c0.5,5,0.2,10.4-2.5,14.8
		c-4.2,7.9-14.3,11.4-22.7,9.4c-10.5-2.2-18.3-12.9-16.9-23.6C19.9,50.6,24.9,43.8,31.8,40.7z"/>
	<g>
		<g>
			<g>
				<path class="st9" d="M129.7,2.6h4.9c12.3,0.7,24.3,6.7,31.7,16.5c4.9,6.2,7.6,14,8.2,21.8v2.9c-0.3,15.2-10,27.7-18.5,39.5
					c-9.5,13.4-18.2,27.9-20.6,44.4c-0.6,2.8,0.1,6.7-3.2,8c-0.8-0.6-1.7-1.1-2.2-2c-1-9.2-3.3-18.3-7.2-26.7
					c-4.5-9.8-10.7-18.7-17-27.3c-3.8-5.2-7.5-10.6-10.5-16.3c-4.7-8.6-6.5-18.8-4.5-28.4c1.6-7.6,5.6-14.7,11.1-20.1
					C109.3,7.7,119.3,3.3,129.7,2.6z M128.7,29.4c-5.8,1.3-10.7,6.4-11.2,12.5c-0.6,5.6,2.7,11.3,7.7,13.8c5.4,2.9,12.6,2,17.2-2.2
					c4.2-3.8,5.8-10.2,3.6-15.5C143.4,31.4,135.6,27.7,128.7,29.4z"/>
			</g>
		</g>
		<g>
			<path class="st10" d="M128.7,29.4c6.8-1.7,14.6,2,17.2,8.6c2.2,5.3,0.7,11.7-3.6,15.5c-4.6,4.2-11.7,5-17.2,2.2
				c-5-2.5-8.3-8.2-7.7-13.8C118,35.9,122.9,30.7,128.7,29.4z"/>
		</g>
	</g>
</g>
</svg>
